<?xml version="1.0" encoding="UTF-8" standalone="no"?>
<!-- Created with Inkscape (http://www.inkscape.org/) -->

<svg xmlns:dc="http://purl.org/dc/elements/1.1/" xmlns:cc="http://creativecommons.org/ns#"
   xmlns:rdf="http://www.w3.org/1999/02/22-rdf-syntax-ns#" xmlns:svg="http://www.w3.org/2000/svg"
   xmlns="http://www.w3.org/2000/svg" xmlns:sodipodi="http://sodipodi.sourceforge.net/DTD/sodipodi-0.dtd"
   xmlns:inkscape="http://www.inkscape.org/namespaces/inkscape" version="1.1" id="svg2" width="324" height="216"
   viewBox="0 0 324 216" sodipodi:docname="Flag of Kainan, Wakayama.svg"
   inkscape:version="0.92.3 (2405546, 2018-03-11)">
   <metadata id="metadata8">
      <rdf:RDF>
         <cc:Work rdf:about="">
            <dc:format>image/svg+xml</dc:format>
            <dc:type rdf:resource="http://purl.org/dc/dcmitype/StillImage" />
            <dc:title></dc:title>
         </cc:Work>
      </rdf:RDF>
   </metadata>
   <defs id="defs6" />
   <sodipodi:namedview pagecolor="#ffffff" bordercolor="#666666" borderopacity="1" objecttolerance="10"
      gridtolerance="10" guidetolerance="10" inkscape:pageopacity="0" inkscape:pageshadow="2"
      inkscape:window-width="1920" inkscape:window-height="1017" id="namedview4" showgrid="false"
      inkscape:zoom="0.87654321" inkscape:cx="162" inkscape:cy="108" inkscape:window-x="-8" inkscape:window-y="-8"
      inkscape:window-maximized="1" inkscape:current-layer="svg2" />
   <rect
      style="opacity:1;fill:#ffffff;fill-opacity:1;fill-rule:evenodd;stroke:none;stroke-width:6.5626955;stroke-miterlimit:4;stroke-dasharray:none;stroke-opacity:1"
      id="rect828" width="324" height="216" x="1.0745625e-006" y="0" />
   <g transform="matrix(0.36361235,0,0,0.35347918,69.216694,-52.185208)" id="layer1" inkscape:label="レイヤー 1">
      <g transform="matrix(1.0770097,0,0,1.0770097,-6.4360941,-50.808243)" id="g3810">
         <path style="fill:#61ad3c;fill-opacity:1;stroke:none"
            d="m 266.5846,280.2304 c -32.93028,25.30896 -96.29092,109.82506 -106.63384,156.73889 39.29849,-41.38278 86.10058,-60.7602 161.87788,-56.52878 z"
            id="path3789" inkscape:connector-curvature="0" sodipodi:nodetypes="cccc" />
         <path style="fill:#61ad3c;fill-opacity:1;stroke:none"
            d="M 93.78639,535.25229 C 123.20328,426.40428 247.48137,400.18838 350.09303,432.47269 l 58.4559,104.06435 C 318.42666,482.07282 196.1234,466.44897 93.78639,535.25229 Z"
            id="path3791" inkscape:connector-curvature="0" sodipodi:nodetypes="cccc" />
         <path style="fill:#005eaf;fill-opacity:1;stroke:none"
            d="m 405.57802,540.2708 c -100.11358,70.80552 -212.30283,61.37649 -214.50173,21.19548 -0.74138,-13.54751 6.11988,-30.2302 49.17104,-50.62414 -10.15015,18.99247 -10.05163,32.63047 -0.78479,38.54312 29.20359,18.63316 100.88756,3.55403 166.11548,-9.11446 z"
            id="path3793" inkscape:connector-curvature="0" sodipodi:nodetypes="cscsc" />
         <path sodipodi:nodetypes="cssccc" inkscape:connector-curvature="0" id="path3795"
            d="m 407.19212,546.31877 c -47.48414,53.76657 -151.34894,114.26586 -229.83273,113.43676 -71.02985,-0.75034 -93.733813,-34.86817 -93.784182,-58.31592 -0.06457,-30.05788 23.922162,-70.76197 126.789152,-88.3894 -119.318747,85.14151 -62.53432,120.1808 52.6794,93.63161 56.05745,-12.49113 111.83095,-35.577 144.14836,-60.36305 z"
            style="fill:#00a1e9;fill-opacity:1;stroke:none" />
      </g>
   </g>
</svg>