<?xml version="1.0" encoding="UTF-8" standalone="no"?>
<!-- Created with Inkscape (http://www.inkscape.org/) -->

<svg
   xmlns:dc="http://purl.org/dc/elements/1.1/"
   xmlns:cc="http://creativecommons.org/ns#"
   xmlns:rdf="http://www.w3.org/1999/02/22-rdf-syntax-ns#"
   xmlns:svg="http://www.w3.org/2000/svg"
   xmlns="http://www.w3.org/2000/svg"
   xmlns:sodipodi="http://sodipodi.sourceforge.net/DTD/sodipodi-0.dtd"
   xmlns:inkscape="http://www.inkscape.org/namespaces/inkscape"
   width="650"
   height="500"
   viewBox="0 0 171.97917 132.29166"
   version="1.1"
   id="svg8"
   inkscape:version="0.92.1 r15371"
   sodipodi:docname="Emblem of Mihama, Wakayama.svg">
  <defs
     id="defs2" />
  <sodipodi:namedview
     id="base"
     pagecolor="#ffffff"
     bordercolor="#666666"
     borderopacity="1.0"
     inkscape:pageopacity="0.0"
     inkscape:pageshadow="2"
     inkscape:zoom="1"
     inkscape:cx="306.66819"
     inkscape:cy="200.39907"
     inkscape:document-units="mm"
     inkscape:current-layer="layer2"
     showgrid="false"
     inkscape:window-width="1920"
     inkscape:window-height="1017"
     inkscape:window-x="1912"
     inkscape:window-y="-8"
     inkscape:window-maximized="1"
     units="px" />
  <metadata
     id="metadata5">
    <rdf:RDF>
      <cc:Work
         rdf:about="">
        <dc:format>image/svg+xml</dc:format>
        <dc:type
           rdf:resource="http://purl.org/dc/dcmitype/StillImage" />
        <dc:title></dc:title>
      </cc:Work>
    </rdf:RDF>
  </metadata>
  <g
     inkscape:groupmode="layer"
     id="layer2"
     inkscape:label="レイヤー 2"
     style="display:inline"
     transform="translate(0,-77.708343)">
    <path
       style="display:inline;opacity:1;fill:#000000;fill-opacity:1;stroke:none;stroke-width:0.01339736;stroke-linecap:round;stroke-linejoin:miter;stroke-miterlimit:4;stroke-dasharray:none;stroke-dashoffset:0;stroke-opacity:1"
       d="m 85.691536,78.064209 c -24.50593,0.02947 -46.362649,13.559919 -57.681228,34.180201 a 10.520049,10.520049 0 0 0 -1.858898,5.9682 10.520049,10.520049 0 0 0 10.519909,10.52025 10.520049,10.520049 0 0 0 10.519912,-10.52025 10.520049,10.520049 0 0 0 -4.679786,-8.74374 c 4.70707,-2.09582 9.883143,-3.24387 15.252309,-3.25013 15.594366,0.004 29.569727,9.54904 35.135949,24.11616 H 41.430377 22.690814 18.496004 v -3.4e-4 L 0.5,130.3349 16.494487,157.01857 c 0,0 12.380966,20.28911 12.388502,20.31462 11.572337,19.68543 32.931063,32.50048 56.808547,32.50095 0.161215,-0.005 0.322421,-0.0103 0.483598,-0.0171 l 30.452706,-52.79855 h 2.92924 L 89.165635,209.71081 C 119.14243,208.10538 144.24381,186.439 150.21193,157.01849 h 5.07959 l 15.99416,-26.68364 h -21.12151 c -1.19107,-5.72631 -3.1393,-11.12555 -5.7934,-16.33755 l -9.49562,16.33755 h -2.92785 l 10.96264,-18.88393 C 131.2258,90.845296 109.37938,78.097973 85.691536,78.064209 Z m -63.14888,78.954361 h 70.415545 c -5.490425,14.6877 -19.514118,24.43049 -35.194447,24.45093 -15.690078,-0.009 -29.727249,-9.7541 -35.221098,-24.45093 z"
       id="path4503"
       inkscape:connector-curvature="0" />
  </g>
</svg>
