<svg xmlns="http://www.w3.org/2000/svg" width="600" height="400"><path d="M0,0h600v400H0V0z" fill="#fff"/><path d="M398.7 212c0 13-2.3 25.3-6.6 36.8l22.7 11.8c9-18.2 14.2-38.8 14.2-60.7 0-55.6-33.2-103.3-80.2-123l-4.6 44c32.3 16.8 54.5 51.4 54.5 91.3h0zm-98.7 102c-24.5 0-46.8-9.2-64-24.4l-22 9.3c22.8 21 53 34 86 34 33 0 63-12.8 86-33.8l-21.7-9.6c-17.2 15.2-39.6 24.5-64.2 24.5h0zm29.4-243.5c-9.4-2.3-19.3-3.5-29.4-3.5-71.2 0-129 59.5-129 133 0 21.7 5 42.3 14 60.4l22.8-11.6c-4.2-11.4-6.6-23.7-6.6-36.7 0-46.8 30.5-86.2 72-98.2l9 105.7-105.2 54.6 16 24 106.6-39.7 106.8 39.7 15.3-24-105.2-55 12.6-148.6z" fill="#03a955"/></svg>