<?xml version="1.0" encoding="UTF-8" standalone="no"?>
<!-- Created with Inkscape (http://www.inkscape.org/) -->

<svg
   xmlns:svg="http://www.w3.org/2000/svg"
   xmlns="http://www.w3.org/2000/svg"
   width="500"
   height="480"
   id="svg2">
  <defs
     id="defs5" />
  <path
     d="M 249.03401,11.2125 192.58579,186.16516 10,186.29016 157.50721,293.82456 100.31526,468.9 249.04918,360.39556 397.75275,468.9 340.34742,294.21786 489.659,186.11338 305.32689,186.26963 249.03401,11.2125 z m 0,174 c 43.60799,0 78.99999,35.392 78.99999,79 0,43.608 -35.392,79 -78.99999,79 -43.608,0 -79,-35.392 -79,-79 0,-43.608 35.392,-79 79,-79 z m -55.34375,23.53125 c 0,0 -0.24219,-0.10547 -0.24219,-0.10547 0,0 0.11719,0.23047 0.11719,0.23047 8.85594,16.64248 14.46875,35.18841 14.46875,55.34375 1e-5,20.15534 -5.63235,38.6583 -14.48828,55.30078 0,0 -0.16019,0.2891 -0.16019,0.2891 0,0 0.28519,-0.1641 0.28519,-0.1641 16.64248,-8.85593 35.20794,-14.42578 55.36328,-14.42578 20.15534,0 38.80283,5.66751 55.4453,14.52344 0,0 0.2266,0.11722 0.2266,0.11722 0,0 -0.1016,-0.24222 -0.1016,-0.24222 -8.85592,-16.64248 -14.57031,-35.2431 -14.57031,-55.39844 1e-5,-20.15533 5.73782,-38.65441 14.59375,-55.29688 0,0 0.14457,-0.26566 0.14457,-0.26566 0,0 -0.26957,0.14066 -0.26957,0.14066 -16.64246,8.85593 -35.31341,14.42188 -55.46874,14.42188 -20.15533,0 -38.70128,-5.61282 -55.34375,-14.46875 z m 55.34375,23.09375 c 6.648,0 12.24999,5.69912 12.24999,12.3125 l 0,7.6875 7.8125,0 c 6.61339,0 12.25,5.727 12.25,12.375 1e-5,6.648 -5.63662,12.5 -12.25,12.5 l -7.6875,0 0,7.5625 c 1e-5,6.61338 -5.727,12.25 -12.37499,12.25 -6.64799,0 -12.375,-5.63662 -12.375,-12.25 l 0,-7.625 -7.6875,0 c -6.61337,0 -12.1875,-5.7895 -12.1875,-12.4375 1e-5,-6.648 5.57412,-12.25 12.1875,-12.25 l 7.75,0 0,-7.8125 c 1e-5,-6.61338 5.6645,-12.3125 12.3125,-12.3125 z"
     id="path2386"
     style="fill:#1e2a63;fill-opacity:1;stroke:none" />
</svg>
