<?xml version="1.0" encoding="UTF-8" standalone="no"?>
<!-- Created with Inkscape (http://www.inkscape.org/) -->

<svg
   xmlns:svg="http://www.w3.org/2000/svg"
   xmlns="http://www.w3.org/2000/svg"
   version="1.0"
   width="640"
   height="400"
   id="svg2">
  <defs
     id="defs5" />
  <path
     d="M 315,19.487976 C 224.734,21.964136 151.064,91.77425 141.562,180.125 L 257,241.0625 c -7.883,-11.924 -12.5,-26.20809 -12.5,-41.5625 0,-39.99216 31.157,-72.73042 70.5,-75.3125 l 0,-104.699524 z m 10,0 0,104.699524 c 39.343,2.58208 71.207,35.32034 71.207,75.3125 0,15.32376 -4.583,30.12071 -12.437,42.03033 L 499,180.71875 C 489.484,92.38275 415.255,21.963846 325,19.487976 z M 21,127.5 184.281,317.937 c 7,7.75 20.969,20.563 20.969,20.563 31.118,25.91092 71.121,41.5 114.75,41.5 43.629,0 83.632,-15.58908 114.75,-41.5 0,0 7.594,-6.063 20.969,-20.313 l 162.618,-189.84731 -218,115.03125 -44.587,23.03531 0,0.004 c -10.645,5.73936 -22.816,8.59 -35.75,8.59 -12.875,0 -24.984,-2.83983 -35.594,-8.53 l 0,-0.001 L 140.719,190.6875 21,127.5 z"
     id="path2384"
     style="fill:#000000;fill-opacity:1;stroke:none" />
</svg>
