<?xml version="1.0" encoding="UTF-8" standalone="no"?>
<!-- Created with Inkscape (http://www.inkscape.org/) -->

<svg xmlns:dc="http://purl.org/dc/elements/1.1/" xmlns:cc="http://creativecommons.org/ns#"
  xmlns:rdf="http://www.w3.org/1999/02/22-rdf-syntax-ns#" xmlns:svg="http://www.w3.org/2000/svg"
  xmlns="http://www.w3.org/2000/svg" version="1.1" width="600" height="400" id="svg2">
  <metadata id="metadata8">
    <rdf:RDF>
      <cc:Work rdf:about="">
        <dc:format>image/svg+xml</dc:format>
        <dc:type rdf:resource="http://purl.org/dc/dcmitype/StillImage" />
        <dc:title></dc:title>
      </cc:Work>
    </rdf:RDF>
  </metadata>
  <defs id="defs6" />
  <rect width="600" height="400" x="0" y="0" id="rect2989"
    style="fill:#ffffff;fill-opacity:1;fill-rule:nonzero;stroke:none" />
  <g transform="matrix(1.0840969,0,0,-1.0840969,97.356057,598.16225)" id="g2826" style="fill:#02a2c6;fill-opacity:1">
    <path
      d="m 95.394913,289.81034 71.516687,-0.13519 c -0.74356,40.69286 -19.1297,79.08745 -50.69708,105.17955 5.74567,14.87115 16.15547,27.57922 29.60709,36.16392 16.29067,-13.58682 30.21547,-29.80988 41.03084,-47.99324 33.52768,56.17237 94.22899,90.5112 159.72962,90.57879 l -27.9172,-49.41275 c -64.2163,-13.11365 -110.72243,-69.08323 -111.87156,-134.51627 35.35276,9.19307 60.09294,41.09844 60.09294,77.60034 0,8.92269 -1.6223,17.98056 -4.66413,26.29489 10.4774,8.44951 22.37431,15.20912 35.08238,20.14364 6.35404,-14.66836 9.59865,-30.48585 9.59865,-46.43853 0,-66.24419 -53.80651,-119.91545 -119.9155,-119.91545 -35.42037,0 -68.88044,15.54705 -91.592737,42.4503 z M 27.190434,473.53658 54.972437,424.19142 c 7.908745,-1.62231 15.749894,-3.92058 23.050275,-6.82721 -7.300381,-15.6147 -10.950571,-32.78412 -10.950571,-50.08872 0,-26.63287 8.787495,-52.45459 25.078158,-73.40938 l 63.134771,0 c -29.26912,12.70807 -48.19603,41.50401 -48.19603,73.40938 0,44.07266 35.69075,79.8986 79.89861,79.8986 14.33037,0 28.39036,-3.92057 40.62526,-11.35614 11.15336,8.92268 23.32066,16.62864 36.5019,22.98268 -21.56316,18.38614 -48.87199,28.39036 -77.12716,28.39036 -29.87749,0 -58.67343,-11.22095 -80.70976,-31.2294 -24.740181,11.62653 -51.778626,17.71018 -79.087456,17.71018 M 346.92005,287.1065 l 0,0.27038 m -0.13519,-0.40557 0,0.54076 m -0.13519,-0.54076 0,0.54076 m -0.1352,-0.54076 0,0.54076 m -0.13519,-0.40557 0,0.27038 m -318.918461,-0.27038 0,0.27038 m -0.135192,-0.40557 0,0.54076 m -0.135193,-0.54076 0,0.54076 m -0.135192,-0.54076 0,0.54076 m -0.135192,-0.40557 0,0.27038"
      id="path2886" style="fill:#02a2c6;fill-opacity:1;stroke:none" />
  </g>
</svg>