<svg xmlns="http://www.w3.org/2000/svg" width="200" height="120"><path fill="#048006" d="M3.064 59.133l23.65 14.937 97.451-58.221-23.424-14.257L3.064 59.133h0zm36.439 21.955l23.651 14.938 97.449-58.221-23.423-14.259-97.677 57.542zm36.331 22.383l23.65 14.938 97.451-58.222-23.424-14.257-97.677 57.541h0z"/><path fill="#fc8100" d="M175.998 58.284l-41.12-24.502-13.972 14.725h-9.77v-9.778c0-6.211 6.93-14.608 6.93-14.608l-18.287-10.93L81.491 24.12s6.929 8.397 6.929 14.608v9.778h-9.77L64.679 33.782l-41.12 24.502h50.549L56.729 80.486l43.051 25.793 43.051-25.793-17.379-22.202h50.546 0 0zm-87.578 0v13.358l-9.201-13.358h9.201zm11.359 29.564L83.195 76.46h33.169L99.779 87.848h0 0zm11.36-16.205V58.285h9.201l-9.201 13.358z"/></svg>