<svg xmlns:rdf="http://www.w3.org/1999/02/22-rdf-syntax-ns#" xmlns="http://www.w3.org/2000/svg" height="500" width="500" version="1.1">
 <path fill="#3eb034" d="m250 24.96c-124.3 0-225 100.8-225 225 0 124.3 100.8 225 225 225 17.82 0 35.14-2.05 51.76-5.964l-17.5-13.6c-117.8 17.7-214.9-65.7-219.6-174.8 34.46 24.96 78.98 40.35 140.4 39.61 31.83 68.92 70.18 107.2 118.9 142.3 36.29-12.64 68.31-34.33 93.45-62.34-96.1-44.3-220.6-175.8-167.4-375.2-0.0376 0-0.075 0-0.1125 0zm121.2 35.39c-5.343 18.47-9.168 41.93-7.426 60.87 108 89.4 74.51 208.9 42.36 252.3l23.12 12.38c28.8-37.9 45.8-84.9 45.8-136 0-79.7-41.3-149.7-103.8-189.7zm-172.8 31.22c-21.9 60.93-17.5 130-13.1 158.4-40.7 5.6-85.56 5.2-119.7-5.4 5.83-50.7 45.7-130.3 132.8-153z"/>
 <path fill="#148cc8" d="m268.2 25.63c-8.2 27.5-12.6 56.65-12.6 86.77 0 104.9 53.4 197.5 134.6 251.8 3.5-5 6.6-10 9.4-15-76.2-51.1-126.3-138-126.3-236.8 0-29.5 4.4-57.96 12.8-84.74-5.9-0.93-11.9-1.58-17.9-2.03zm36.9 5.91c-9.5 26.74-14.6 55.51-14.6 85.56 0 90.1 46.8 169.5 117.4 214.8 2.3-5.7 4.4-11.5 6-17.4-63.6-42.5-105.5-115-105.5-197.4 0-28.32 5-55.42 14-80.56-5.7-1.91-11.4-3.55-17.3-5zm33.3 11.08c-7.6 22.52-11.8 46.6-11.8 71.68 0 73.9 35.9 139.5 91.3 180.1 1.1-6.9 2.1-13.7 2.7-20.4-46.4-37.7-76-95.2-76-159.7 0-22.31 3.6-43.76 10.1-63.86-5.3-2.82-10.8-5.45-16.3-7.82z"/>
</svg>
