<?xml version="1.0" encoding="UTF-8" standalone="no"?>
<!DOCTYPE svg PUBLIC "-//W3C//DTD SVG 1.1//EN" "http://www.w3.org/Graphics/SVG/1.1/DTD/svg11.dtd">
<svg xmlns="http://www.w3.org/2000/svg" version="1.1" viewBox="0 0 208 143">
<g stroke-width="2.00" fill="none" stroke-linecap="butt">
<path stroke="#a1bca2" vector-effect="non-scaling-stroke" d="
  M 148.80 68.00
  L 162.71 68.00
  Q 164.65 68.00 163.27 66.63
  Q 150.10 53.59 137.04 40.20
  Q 130.94 33.94 126.58 31.28
  C 111.18 21.86 92.21 22.77 77.61 33.20
  Q 61.02 45.05 59.22 67.33
  A 1.00 1.00 0.0 0 1 58.22 68.25
  L 41.81 68.25
  Q 39.89 68.25 41.25 69.62
  Q 53.62 82.02 66.12 94.48
  Q 75.06 103.40 80.23 106.46
  C 103.64 120.31 133.04 111.19 144.18 86.44
  Q 147.62 78.79 147.80 68.98
  A 1.00 1.00 0.0 0 1 148.80 68.00"
/>
<path stroke="#a1bca2" vector-effect="non-scaling-stroke" d="
  M 94.82 69.70
  L 72.13 85.94
  A 1.00 0.99 43.1 0 0 72.19 87.60
  Q 82.03 93.65 92.67 89.52
  C 121.53 78.33 102.59 35.30 75.05 48.35
  Q 63.09 54.02 61.84 67.16
  A 1.00 1.00 0.0 0 0 62.84 68.25
  L 94.35 68.25
  Q 96.84 68.25 94.82 69.70"
/>
</g>
<path fill="#ffffff" d="
  M 0.00 0.00
  L 208.00 0.00
  L 208.00 143.00
  L 0.00 143.00
  L 0.00 0.00
  Z
  M 148.80 68.00
  L 162.71 68.00
  Q 164.65 68.00 163.27 66.63
  Q 150.10 53.59 137.04 40.20
  Q 130.94 33.94 126.58 31.28
  C 111.18 21.86 92.21 22.77 77.61 33.20
  Q 61.02 45.05 59.22 67.33
  A 1.00 1.00 0.0 0 1 58.22 68.25
  L 41.81 68.25
  Q 39.89 68.25 41.25 69.62
  Q 53.62 82.02 66.12 94.48
  Q 75.06 103.40 80.23 106.46
  C 103.64 120.31 133.04 111.19 144.18 86.44
  Q 147.62 78.79 147.80 68.98
  A 1.00 1.00 0.0 0 1 148.80 68.00
  Z"
/>
<path fill="#437844" d="
  M 147.80 68.98
  Q 147.62 78.79 144.18 86.44
  C 133.04 111.19 103.64 120.31 80.23 106.46
  Q 75.06 103.40 66.12 94.48
  Q 53.62 82.02 41.25 69.62
  Q 39.89 68.25 41.81 68.25
  L 58.22 68.25
  A 1.00 1.00 0.0 0 0 59.22 67.33
  Q 61.02 45.05 77.61 33.20
  C 92.21 22.77 111.18 21.86 126.58 31.28
  Q 130.94 33.94 137.04 40.20
  Q 150.10 53.59 163.27 66.63
  Q 164.65 68.00 162.71 68.00
  L 148.80 68.00
  A 1.00 1.00 0.0 0 0 147.80 68.98
  Z
  M 94.82 69.70
  L 72.13 85.94
  A 1.00 0.99 43.1 0 0 72.19 87.60
  Q 82.03 93.65 92.67 89.52
  C 121.53 78.33 102.59 35.30 75.05 48.35
  Q 63.09 54.02 61.84 67.16
  A 1.00 1.00 0.0 0 0 62.84 68.25
  L 94.35 68.25
  Q 96.84 68.25 94.82 69.70
  Z"
/>
<path fill="#ffffff" d="
  M 94.82 69.70
  Q 96.84 68.25 94.35 68.25
  L 62.84 68.25
  A 1.00 1.00 0.0 0 1 61.84 67.16
  Q 63.09 54.02 75.05 48.35
  C 102.59 35.30 121.53 78.33 92.67 89.52
  Q 82.03 93.65 72.19 87.60
  A 1.00 0.99 43.1 0 1 72.13 85.94
  L 94.82 69.70
  Z"
/>
</svg>
