<?xml version="1.0" encoding="utf-8"?>
<!-- Generator: Adobe Illustrator 28.0.0, SVG Export Plug-In . SVG Version: 6.00 Build 0)  -->
<svg version="1.1" id="Layer_1" xmlns="http://www.w3.org/2000/svg" xmlns:xlink="http://www.w3.org/1999/xlink" x="0px"
	y="0px" viewBox="0 0 3000 2000" style="enable-background:new 0 0 3000 2000;" xml:space="preserve">
	<style type="text/css">
		.st0 {
			fill: #FFFFFF;
		}

		.st1 {
			fill: #0D988D;
		}

		.st2 {
			fill: #0E5DA7;
		}
	</style>
	<rect class="st0" width="3000" height="2000" />
	<path id="path23390" class="st1" d="M1462.9,1076.2c0,0-233.7-33.6-429,109.3c-193.6,141.7-236.8,334.1-111.4,419.8
	c78.8,53.8,332.1,52.2,527.9-330.9c0,0-128.7,131.5-219.7,65.2C1155.6,1285,1195,1115.6,1462.9,1076.2L1462.9,1076.2L1462.9,1076.2z
	" />
	<path id="path23392" class="st2" d="M2001.8,1299.1c-117.3,0-209.8,47.8-329.1-35.1c-60.2-41.8-92.3-86.2-111.1-159.7
	c780.9-177.8,765.4-691,402.6-637.9c-345.6,50.6-430.8,343.3-430.8,343.3c176.6-171.1,376.3-160.4,353.6-0.6
	c-26.2,184.5-367.7,281.1-367.7,281.1c0,0,0,0.1,0,0.1h-0.1c-36.3,280.5,266.1,654.7,567.2,542.4
	C2255.8,1569.6,2272,1299.1,2001.8,1299.1L2001.8,1299.1L2001.8,1299.1z" />
	<path id="path23394" class="st2" d="M1547.5,346.8c-534.8,191.1-875,626.9-719.8,751.2c121.7,97.4,207.2-126.1,607-91.8
	C1323.4,911.1,1262.7,545.9,1547.5,346.8L1547.5,346.8L1547.5,346.8z" />
</svg>