<?xml version="1.0" encoding="utf-8" standalone="no"?>
<svg xmlns:svg="http://www.w3.org/2000/svg" xmlns="http://www.w3.org/2000/svg" version="1.1" width="500" height="500" viewBox="-250,-250,500,500">
	<title>Shirahama, Wakayama Chapter</title>
	<polygon points="250,-250 250,250 -250,250 -250,-250 " style="fill:none;stroke:none" />
	<g style="fill:#000;stroke:none">
		<path d="M -111.90625,-193.8125 A 224,224 0 0 0 -224,0 224,224 0 0 0 0,224 224,224 0 0 0 224,0 224,224 0 0 0 111.875,-193.75 L 63.9375,-110.75 A 128,128 0 0 1 128,0 128,128 0 0 1 0,128 128,128 0 0 1 -128,0 128,128 0 0 1 -63.9375,-110.71875 L -111.90625,-193.8125 z" />
		<path d="M 0,-82 -91.221343,-240 91.221343,-240 z" />
		<circle cx="0" cy="0" r="82" />
	</g>
</svg>